<mxfile host="app.diagrams.net" agent="Mozilla/5.0 (X11; Linux x86_64) AppleWebKit/537.36 (KHTML, like Gecko) Chrome/131.0.0.0 Safari/537.36" version="26.0.3">
  <diagram name="P치gina-1" id="5FjnwDDPpg5dh-x1vGFN">
    <mxGraphModel dx="1195" dy="662" grid="1" gridSize="10" guides="1" tooltips="1" connect="1" arrows="1" fold="1" page="1" pageScale="1" pageWidth="827" pageHeight="1169" math="0" shadow="0">
      <root>
        <mxCell id="0" />
        <mxCell id="1" parent="0" />
        <mxCell id="7yBYphcbDWLp9bj1Q6KP-27" value="" style="rounded=0;whiteSpace=wrap;html=1;" vertex="1" parent="1">
          <mxGeometry x="20" y="350" width="710" height="420" as="geometry" />
        </mxCell>
        <mxCell id="7yBYphcbDWLp9bj1Q6KP-101" value="" style="group" vertex="1" connectable="0" parent="1">
          <mxGeometry x="273" y="560" width="553.74" height="201.93" as="geometry" />
        </mxCell>
        <mxCell id="7yBYphcbDWLp9bj1Q6KP-102" value="" style="group;rotation=180;labelPosition=center;verticalLabelPosition=top;align=center;verticalAlign=bottom;" vertex="1" connectable="0" parent="7yBYphcbDWLp9bj1Q6KP-101">
          <mxGeometry y="-20" width="553.74" height="221.93" as="geometry" />
        </mxCell>
        <mxCell id="7yBYphcbDWLp9bj1Q6KP-152" value="" style="group" vertex="1" connectable="0" parent="7yBYphcbDWLp9bj1Q6KP-102">
          <mxGeometry y="10" width="553.74" height="211.93" as="geometry" />
        </mxCell>
        <mxCell id="7yBYphcbDWLp9bj1Q6KP-103" value="" style="rounded=0;whiteSpace=wrap;html=1;fillColor=#f5f5f5;fontColor=#333333;strokeColor=#666666;rotation=0;" vertex="1" parent="7yBYphcbDWLp9bj1Q6KP-152">
          <mxGeometry width="121.33333333333333" height="40" as="geometry" />
        </mxCell>
        <mxCell id="7yBYphcbDWLp9bj1Q6KP-104" value="" style="aspect=fixed;sketch=0;html=1;dashed=0;whitespace=wrap;verticalLabelPosition=bottom;verticalAlign=top;fillColor=#2875E2;strokeColor=#ffffff;points=[[0.005,0.63,0],[0.1,0.2,0],[0.9,0.2,0],[0.5,0,0],[0.995,0.63,0],[0.72,0.99,0],[0.5,1,0],[0.28,0.99,0]];shape=mxgraph.kubernetes.icon2;prIcon=pod;rotation=0;" vertex="1" parent="7yBYphcbDWLp9bj1Q6KP-152">
          <mxGeometry x="67" y="10" width="14.442133333333334" height="13.866666666666669" as="geometry" />
        </mxCell>
        <mxCell id="7yBYphcbDWLp9bj1Q6KP-105" value="" style="group" vertex="1" connectable="0" parent="7yBYphcbDWLp9bj1Q6KP-152">
          <mxGeometry x="10" y="10" width="104.13799999999999" height="20" as="geometry" />
        </mxCell>
        <mxCell id="7yBYphcbDWLp9bj1Q6KP-106" value="" style="group;rotation=0;" vertex="1" connectable="0" parent="7yBYphcbDWLp9bj1Q6KP-105">
          <mxGeometry width="76.61733333333336" height="20" as="geometry" />
        </mxCell>
        <mxCell id="7yBYphcbDWLp9bj1Q6KP-107" value="" style="aspect=fixed;sketch=0;html=1;dashed=0;whitespace=wrap;verticalLabelPosition=bottom;verticalAlign=top;fillColor=#2875E2;strokeColor=#ffffff;points=[[0.005,0.63,0],[0.1,0.2,0],[0.9,0.2,0],[0.5,0,0],[0.995,0.63,0],[0.72,0.99,0],[0.5,1,0],[0.28,0.99,0]];shape=mxgraph.kubernetes.icon2;prIcon=deploy;rotation=0;" vertex="1" parent="7yBYphcbDWLp9bj1Q6KP-106">
          <mxGeometry x="28" width="14.442133333333334" height="13.866666666666669" as="geometry" />
        </mxCell>
        <mxCell id="7yBYphcbDWLp9bj1Q6KP-108" value="" style="aspect=fixed;sketch=0;html=1;dashed=0;whitespace=wrap;verticalLabelPosition=bottom;verticalAlign=top;fillColor=#2875E2;strokeColor=#ffffff;points=[[0.005,0.63,0],[0.1,0.2,0],[0.9,0.2,0],[0.5,0,0],[0.995,0.63,0],[0.72,0.99,0],[0.5,1,0],[0.28,0.99,0]];shape=mxgraph.kubernetes.icon2;prIcon=svc;rotation=0;" vertex="1" parent="7yBYphcbDWLp9bj1Q6KP-106">
          <mxGeometry width="14.449066666666667" height="13.866666666666669" as="geometry" />
        </mxCell>
        <mxCell id="7yBYphcbDWLp9bj1Q6KP-109" value="" style="image;sketch=0;aspect=fixed;html=1;points=[];align=center;fontSize=12;image=img/lib/mscae/Docker.svg;rotation=0;" vertex="1" parent="7yBYphcbDWLp9bj1Q6KP-105">
          <mxGeometry x="83" width="16.910400000000003" height="13.866666666666669" as="geometry" />
        </mxCell>
        <mxCell id="7yBYphcbDWLp9bj1Q6KP-149" value="&lt;font style=&quot;font-size: 8px;&quot;&gt;Order-service&lt;/font&gt;" style="text;html=1;align=center;verticalAlign=middle;whiteSpace=wrap;rounded=0;" vertex="1" parent="7yBYphcbDWLp9bj1Q6KP-152">
          <mxGeometry x="32.06999999999998" y="30" width="60" height="10" as="geometry" />
        </mxCell>
        <mxCell id="7yBYphcbDWLp9bj1Q6KP-110" value="&lt;font style=&quot;font-size: 8px;&quot;&gt;Order-service&lt;/font&gt;" style="text;html=1;align=center;verticalAlign=middle;whiteSpace=wrap;rounded=0;" vertex="1" parent="7yBYphcbDWLp9bj1Q6KP-101">
          <mxGeometry x="35.05" y="40" width="54.95" height="10" as="geometry" />
        </mxCell>
        <mxCell id="7yBYphcbDWLp9bj1Q6KP-111" value="" style="group" vertex="1" connectable="0" parent="7yBYphcbDWLp9bj1Q6KP-101">
          <mxGeometry y="30" width="140" height="50" as="geometry" />
        </mxCell>
        <mxCell id="7yBYphcbDWLp9bj1Q6KP-112" value="" style="group;rotation=180;labelPosition=center;verticalLabelPosition=top;align=center;verticalAlign=bottom;" vertex="1" connectable="0" parent="7yBYphcbDWLp9bj1Q6KP-111">
          <mxGeometry width="140" height="50" as="geometry" />
        </mxCell>
        <mxCell id="7yBYphcbDWLp9bj1Q6KP-113" value="" style="rounded=0;whiteSpace=wrap;html=1;fillColor=#f5f5f5;fontColor=#333333;strokeColor=#666666;rotation=0;" vertex="1" parent="7yBYphcbDWLp9bj1Q6KP-112">
          <mxGeometry y="10" width="121.33333333333333" height="40" as="geometry" />
        </mxCell>
        <mxCell id="7yBYphcbDWLp9bj1Q6KP-114" value="" style="aspect=fixed;sketch=0;html=1;dashed=0;whitespace=wrap;verticalLabelPosition=bottom;verticalAlign=top;fillColor=#2875E2;strokeColor=#ffffff;points=[[0.005,0.63,0],[0.1,0.2,0],[0.9,0.2,0],[0.5,0,0],[0.995,0.63,0],[0.72,0.99,0],[0.5,1,0],[0.28,0.99,0]];shape=mxgraph.kubernetes.icon2;prIcon=pod;rotation=0;" vertex="1" parent="7yBYphcbDWLp9bj1Q6KP-112">
          <mxGeometry x="67" y="20" width="14.442133333333334" height="13.866666666666669" as="geometry" />
        </mxCell>
        <mxCell id="7yBYphcbDWLp9bj1Q6KP-115" value="" style="group" vertex="1" connectable="0" parent="7yBYphcbDWLp9bj1Q6KP-112">
          <mxGeometry x="10" y="20" width="104.13799999999999" height="20" as="geometry" />
        </mxCell>
        <mxCell id="7yBYphcbDWLp9bj1Q6KP-116" value="" style="group;rotation=0;" vertex="1" connectable="0" parent="7yBYphcbDWLp9bj1Q6KP-115">
          <mxGeometry width="76.61733333333336" height="20" as="geometry" />
        </mxCell>
        <mxCell id="7yBYphcbDWLp9bj1Q6KP-117" value="" style="aspect=fixed;sketch=0;html=1;dashed=0;whitespace=wrap;verticalLabelPosition=bottom;verticalAlign=top;fillColor=#2875E2;strokeColor=#ffffff;points=[[0.005,0.63,0],[0.1,0.2,0],[0.9,0.2,0],[0.5,0,0],[0.995,0.63,0],[0.72,0.99,0],[0.5,1,0],[0.28,0.99,0]];shape=mxgraph.kubernetes.icon2;prIcon=deploy;rotation=0;" vertex="1" parent="7yBYphcbDWLp9bj1Q6KP-116">
          <mxGeometry x="28" width="14.442133333333334" height="13.866666666666669" as="geometry" />
        </mxCell>
        <mxCell id="7yBYphcbDWLp9bj1Q6KP-118" value="" style="aspect=fixed;sketch=0;html=1;dashed=0;whitespace=wrap;verticalLabelPosition=bottom;verticalAlign=top;fillColor=#2875E2;strokeColor=#ffffff;points=[[0.005,0.63,0],[0.1,0.2,0],[0.9,0.2,0],[0.5,0,0],[0.995,0.63,0],[0.72,0.99,0],[0.5,1,0],[0.28,0.99,0]];shape=mxgraph.kubernetes.icon2;prIcon=svc;rotation=0;" vertex="1" parent="7yBYphcbDWLp9bj1Q6KP-116">
          <mxGeometry width="14.449066666666667" height="13.866666666666669" as="geometry" />
        </mxCell>
        <mxCell id="7yBYphcbDWLp9bj1Q6KP-119" value="" style="image;sketch=0;aspect=fixed;html=1;points=[];align=center;fontSize=12;image=img/lib/mscae/Docker.svg;rotation=0;" vertex="1" parent="7yBYphcbDWLp9bj1Q6KP-115">
          <mxGeometry x="83" width="16.910400000000003" height="13.866666666666669" as="geometry" />
        </mxCell>
        <mxCell id="7yBYphcbDWLp9bj1Q6KP-120" value="&lt;font style=&quot;font-size: 8px;&quot;&gt;Review-service&lt;/font&gt;" style="text;html=1;align=center;verticalAlign=middle;whiteSpace=wrap;rounded=0;" vertex="1" parent="7yBYphcbDWLp9bj1Q6KP-112">
          <mxGeometry x="29.589999999999996" y="40" width="64.95" height="10" as="geometry" />
        </mxCell>
        <mxCell id="7yBYphcbDWLp9bj1Q6KP-209" value="" style="group" vertex="1" connectable="0" parent="1">
          <mxGeometry x="522.5899999999999" y="150" width="200" height="180" as="geometry" />
        </mxCell>
        <mxCell id="7yBYphcbDWLp9bj1Q6KP-4" value="Presentaci칩n" style="rounded=0;whiteSpace=wrap;html=1;" vertex="1" parent="7yBYphcbDWLp9bj1Q6KP-209">
          <mxGeometry x="80" width="120" height="30" as="geometry" />
        </mxCell>
        <mxCell id="7yBYphcbDWLp9bj1Q6KP-5" value="Integraci칩n" style="rounded=0;whiteSpace=wrap;html=1;" vertex="1" parent="7yBYphcbDWLp9bj1Q6KP-209">
          <mxGeometry x="80" y="50" width="120" height="30" as="geometry" />
        </mxCell>
        <mxCell id="7yBYphcbDWLp9bj1Q6KP-6" value="L칩gica" style="rounded=0;whiteSpace=wrap;html=1;" vertex="1" parent="7yBYphcbDWLp9bj1Q6KP-209">
          <mxGeometry x="80" y="100" width="120" height="30" as="geometry" />
        </mxCell>
        <mxCell id="7yBYphcbDWLp9bj1Q6KP-7" value="Persistencia" style="rounded=0;whiteSpace=wrap;html=1;" vertex="1" parent="7yBYphcbDWLp9bj1Q6KP-209">
          <mxGeometry x="80" y="150" width="120" height="30" as="geometry" />
        </mxCell>
        <mxCell id="7yBYphcbDWLp9bj1Q6KP-8" value="&lt;div style=&quot;&quot;&gt;&lt;span style=&quot;color: light-dark(rgb(0, 0, 0), rgb(255, 255, 255)); line-height: 70%;&quot;&gt;Seguridad&lt;/span&gt;&lt;/div&gt;" style="rounded=0;whiteSpace=wrap;html=1;align=center;" vertex="1" parent="7yBYphcbDWLp9bj1Q6KP-209">
          <mxGeometry width="60" height="180" as="geometry" />
        </mxCell>
        <mxCell id="7yBYphcbDWLp9bj1Q6KP-12" style="edgeStyle=orthogonalEdgeStyle;rounded=0;orthogonalLoop=1;jettySize=auto;html=1;" edge="1" parent="7yBYphcbDWLp9bj1Q6KP-209" source="7yBYphcbDWLp9bj1Q6KP-4" target="7yBYphcbDWLp9bj1Q6KP-5">
          <mxGeometry relative="1" as="geometry" />
        </mxCell>
        <mxCell id="7yBYphcbDWLp9bj1Q6KP-13" style="edgeStyle=orthogonalEdgeStyle;rounded=0;orthogonalLoop=1;jettySize=auto;html=1;" edge="1" parent="7yBYphcbDWLp9bj1Q6KP-209" source="7yBYphcbDWLp9bj1Q6KP-5" target="7yBYphcbDWLp9bj1Q6KP-6">
          <mxGeometry relative="1" as="geometry" />
        </mxCell>
        <mxCell id="7yBYphcbDWLp9bj1Q6KP-11" value="" style="edgeStyle=orthogonalEdgeStyle;rounded=0;orthogonalLoop=1;jettySize=auto;html=1;" edge="1" parent="7yBYphcbDWLp9bj1Q6KP-209" source="7yBYphcbDWLp9bj1Q6KP-6" target="7yBYphcbDWLp9bj1Q6KP-7">
          <mxGeometry relative="1" as="geometry" />
        </mxCell>
        <mxCell id="7yBYphcbDWLp9bj1Q6KP-210" value="" style="group" vertex="1" connectable="0" parent="1">
          <mxGeometry x="50" y="320" width="674" height="438.06999999999994" as="geometry" />
        </mxCell>
        <mxCell id="7yBYphcbDWLp9bj1Q6KP-20" style="edgeStyle=orthogonalEdgeStyle;rounded=0;orthogonalLoop=1;jettySize=auto;html=1;" edge="1" parent="7yBYphcbDWLp9bj1Q6KP-210" source="7yBYphcbDWLp9bj1Q6KP-18" target="7yBYphcbDWLp9bj1Q6KP-19">
          <mxGeometry relative="1" as="geometry" />
        </mxCell>
        <mxCell id="7yBYphcbDWLp9bj1Q6KP-154" style="edgeStyle=orthogonalEdgeStyle;rounded=0;orthogonalLoop=1;jettySize=auto;html=1;" edge="1" parent="7yBYphcbDWLp9bj1Q6KP-210" source="7yBYphcbDWLp9bj1Q6KP-18" target="7yBYphcbDWLp9bj1Q6KP-153">
          <mxGeometry relative="1" as="geometry">
            <Array as="points">
              <mxPoint x="30" y="175" />
            </Array>
          </mxGeometry>
        </mxCell>
        <mxCell id="7yBYphcbDWLp9bj1Q6KP-18" value="&lt;font style=&quot;font-size: 9px;&quot;&gt;Client&lt;/font&gt;" style="verticalLabelPosition=bottom;html=1;verticalAlign=top;align=center;strokeColor=none;fillColor=#00BEF2;shape=mxgraph.azure.tablet;pointerEvents=1;" vertex="1" parent="7yBYphcbDWLp9bj1Q6KP-210">
          <mxGeometry y="211.25" width="50" height="37.5" as="geometry" />
        </mxCell>
        <mxCell id="7yBYphcbDWLp9bj1Q6KP-141" style="edgeStyle=orthogonalEdgeStyle;rounded=0;orthogonalLoop=1;jettySize=auto;html=1;entryX=0;entryY=0.5;entryDx=0;entryDy=0;" edge="1" parent="7yBYphcbDWLp9bj1Q6KP-210" target="7yBYphcbDWLp9bj1Q6KP-35">
          <mxGeometry relative="1" as="geometry">
            <mxPoint x="160" y="190" as="sourcePoint" />
            <Array as="points">
              <mxPoint x="160" y="100" />
            </Array>
          </mxGeometry>
        </mxCell>
        <mxCell id="7yBYphcbDWLp9bj1Q6KP-142" style="edgeStyle=orthogonalEdgeStyle;rounded=0;orthogonalLoop=1;jettySize=auto;html=1;entryX=0;entryY=0.5;entryDx=0;entryDy=0;" edge="1" parent="7yBYphcbDWLp9bj1Q6KP-210" source="7yBYphcbDWLp9bj1Q6KP-19" target="7yBYphcbDWLp9bj1Q6KP-83">
          <mxGeometry relative="1" as="geometry">
            <Array as="points">
              <mxPoint x="160" y="230" />
              <mxPoint x="160" y="150" />
            </Array>
          </mxGeometry>
        </mxCell>
        <mxCell id="7yBYphcbDWLp9bj1Q6KP-143" style="edgeStyle=orthogonalEdgeStyle;rounded=0;orthogonalLoop=1;jettySize=auto;html=1;entryX=0;entryY=0.5;entryDx=0;entryDy=0;" edge="1" parent="7yBYphcbDWLp9bj1Q6KP-210" source="7yBYphcbDWLp9bj1Q6KP-19" target="7yBYphcbDWLp9bj1Q6KP-93">
          <mxGeometry relative="1" as="geometry">
            <Array as="points">
              <mxPoint x="160" y="230" />
              <mxPoint x="160" y="200" />
            </Array>
          </mxGeometry>
        </mxCell>
        <mxCell id="7yBYphcbDWLp9bj1Q6KP-144" style="edgeStyle=orthogonalEdgeStyle;rounded=0;orthogonalLoop=1;jettySize=auto;html=1;" edge="1" parent="7yBYphcbDWLp9bj1Q6KP-210" source="7yBYphcbDWLp9bj1Q6KP-19" target="7yBYphcbDWLp9bj1Q6KP-103">
          <mxGeometry relative="1" as="geometry">
            <Array as="points">
              <mxPoint x="160" y="230" />
              <mxPoint x="160" y="250" />
            </Array>
          </mxGeometry>
        </mxCell>
        <mxCell id="7yBYphcbDWLp9bj1Q6KP-146" style="edgeStyle=orthogonalEdgeStyle;rounded=0;orthogonalLoop=1;jettySize=auto;html=1;entryX=0;entryY=0.5;entryDx=0;entryDy=0;" edge="1" parent="7yBYphcbDWLp9bj1Q6KP-210" source="7yBYphcbDWLp9bj1Q6KP-19" target="7yBYphcbDWLp9bj1Q6KP-113">
          <mxGeometry relative="1" as="geometry">
            <Array as="points">
              <mxPoint x="160" y="230" />
              <mxPoint x="160" y="300" />
            </Array>
          </mxGeometry>
        </mxCell>
        <mxCell id="7yBYphcbDWLp9bj1Q6KP-147" style="edgeStyle=orthogonalEdgeStyle;rounded=0;orthogonalLoop=1;jettySize=auto;html=1;entryX=0;entryY=0.5;entryDx=0;entryDy=0;" edge="1" parent="7yBYphcbDWLp9bj1Q6KP-210" source="7yBYphcbDWLp9bj1Q6KP-19" target="7yBYphcbDWLp9bj1Q6KP-123">
          <mxGeometry relative="1" as="geometry">
            <Array as="points">
              <mxPoint x="160" y="230" />
              <mxPoint x="160" y="350" />
            </Array>
          </mxGeometry>
        </mxCell>
        <mxCell id="7yBYphcbDWLp9bj1Q6KP-148" style="edgeStyle=orthogonalEdgeStyle;rounded=0;orthogonalLoop=1;jettySize=auto;html=1;entryX=0;entryY=0.5;entryDx=0;entryDy=0;" edge="1" parent="7yBYphcbDWLp9bj1Q6KP-210" source="7yBYphcbDWLp9bj1Q6KP-19" target="7yBYphcbDWLp9bj1Q6KP-133">
          <mxGeometry relative="1" as="geometry">
            <Array as="points">
              <mxPoint x="160" y="230" />
              <mxPoint x="160" y="400" />
            </Array>
          </mxGeometry>
        </mxCell>
        <mxCell id="7yBYphcbDWLp9bj1Q6KP-155" style="edgeStyle=orthogonalEdgeStyle;rounded=0;orthogonalLoop=1;jettySize=auto;html=1;" edge="1" parent="7yBYphcbDWLp9bj1Q6KP-210" source="7yBYphcbDWLp9bj1Q6KP-19" target="7yBYphcbDWLp9bj1Q6KP-153">
          <mxGeometry relative="1" as="geometry">
            <Array as="points">
              <mxPoint x="110" y="175" />
            </Array>
          </mxGeometry>
        </mxCell>
        <mxCell id="7yBYphcbDWLp9bj1Q6KP-19" value="&lt;font style=&quot;font-size: 9px;&quot;&gt;Kong Api Gateway&lt;/font&gt;" style="sketch=0;points=[[0,0,0],[0.25,0,0],[0.5,0,0],[0.75,0,0],[1,0,0],[0,1,0],[0.25,1,0],[0.5,1,0],[0.75,1,0],[1,1,0],[0,0.25,0],[0,0.5,0],[0,0.75,0],[1,0.25,0],[1,0.5,0],[1,0.75,0]];outlineConnect=0;fontColor=#232F3E;fillColor=#E7157B;strokeColor=#ffffff;dashed=0;verticalLabelPosition=bottom;verticalAlign=top;align=center;html=1;fontSize=12;fontStyle=0;aspect=fixed;shape=mxgraph.aws4.resourceIcon;resIcon=mxgraph.aws4.api_gateway;" vertex="1" parent="7yBYphcbDWLp9bj1Q6KP-210">
          <mxGeometry x="90" y="210" width="40" height="40" as="geometry" />
        </mxCell>
        <mxCell id="7yBYphcbDWLp9bj1Q6KP-79" value="" style="group" vertex="1" connectable="0" parent="7yBYphcbDWLp9bj1Q6KP-210">
          <mxGeometry x="223" y="70" width="140" height="50" as="geometry" />
        </mxCell>
        <mxCell id="7yBYphcbDWLp9bj1Q6KP-37" value="" style="group;rotation=180;labelPosition=center;verticalLabelPosition=top;align=center;verticalAlign=bottom;" vertex="1" connectable="0" parent="7yBYphcbDWLp9bj1Q6KP-79">
          <mxGeometry width="140" height="40" as="geometry" />
        </mxCell>
        <mxCell id="7yBYphcbDWLp9bj1Q6KP-35" value="" style="rounded=0;whiteSpace=wrap;html=1;fillColor=#f5f5f5;fontColor=#333333;strokeColor=#666666;rotation=0;" vertex="1" parent="7yBYphcbDWLp9bj1Q6KP-37">
          <mxGeometry y="10" width="121.33333333333333" height="40" as="geometry" />
        </mxCell>
        <mxCell id="7yBYphcbDWLp9bj1Q6KP-32" value="" style="aspect=fixed;sketch=0;html=1;dashed=0;whitespace=wrap;verticalLabelPosition=bottom;verticalAlign=top;fillColor=#2875E2;strokeColor=#ffffff;points=[[0.005,0.63,0],[0.1,0.2,0],[0.9,0.2,0],[0.5,0,0],[0.995,0.63,0],[0.72,0.99,0],[0.5,1,0],[0.28,0.99,0]];shape=mxgraph.kubernetes.icon2;prIcon=pod;rotation=0;" vertex="1" parent="7yBYphcbDWLp9bj1Q6KP-37">
          <mxGeometry x="67" y="20" width="14.442133333333334" height="13.866666666666669" as="geometry" />
        </mxCell>
        <mxCell id="7yBYphcbDWLp9bj1Q6KP-76" value="" style="group" vertex="1" connectable="0" parent="7yBYphcbDWLp9bj1Q6KP-37">
          <mxGeometry x="10" y="20" width="104.13799999999999" height="20" as="geometry" />
        </mxCell>
        <mxCell id="7yBYphcbDWLp9bj1Q6KP-21" value="" style="image;sketch=0;aspect=fixed;html=1;points=[];align=center;fontSize=12;image=img/lib/mscae/Docker.svg;rotation=0;" vertex="1" parent="7yBYphcbDWLp9bj1Q6KP-76">
          <mxGeometry x="83" width="16.910400000000003" height="13.866666666666669" as="geometry" />
        </mxCell>
        <mxCell id="7yBYphcbDWLp9bj1Q6KP-36" value="" style="group;rotation=0;" vertex="1" connectable="0" parent="7yBYphcbDWLp9bj1Q6KP-76">
          <mxGeometry width="76.61733333333336" height="20" as="geometry" />
        </mxCell>
        <mxCell id="7yBYphcbDWLp9bj1Q6KP-34" value="" style="aspect=fixed;sketch=0;html=1;dashed=0;whitespace=wrap;verticalLabelPosition=bottom;verticalAlign=top;fillColor=#2875E2;strokeColor=#ffffff;points=[[0.005,0.63,0],[0.1,0.2,0],[0.9,0.2,0],[0.5,0,0],[0.995,0.63,0],[0.72,0.99,0],[0.5,1,0],[0.28,0.99,0]];shape=mxgraph.kubernetes.icon2;prIcon=deploy;rotation=0;" vertex="1" parent="7yBYphcbDWLp9bj1Q6KP-36">
          <mxGeometry x="28" width="14.442133333333334" height="13.866666666666669" as="geometry" />
        </mxCell>
        <mxCell id="7yBYphcbDWLp9bj1Q6KP-33" value="" style="aspect=fixed;sketch=0;html=1;dashed=0;whitespace=wrap;verticalLabelPosition=bottom;verticalAlign=top;fillColor=#2875E2;strokeColor=#ffffff;points=[[0.005,0.63,0],[0.1,0.2,0],[0.9,0.2,0],[0.5,0,0],[0.995,0.63,0],[0.72,0.99,0],[0.5,1,0],[0.28,0.99,0]];shape=mxgraph.kubernetes.icon2;prIcon=svc;rotation=0;" vertex="1" parent="7yBYphcbDWLp9bj1Q6KP-36">
          <mxGeometry width="14.449066666666667" height="13.866666666666669" as="geometry" />
        </mxCell>
        <mxCell id="7yBYphcbDWLp9bj1Q6KP-77" value="&lt;font style=&quot;font-size: 8px;&quot;&gt;User-service&lt;/font&gt;" style="text;html=1;align=center;verticalAlign=middle;whiteSpace=wrap;rounded=0;" vertex="1" parent="7yBYphcbDWLp9bj1Q6KP-79">
          <mxGeometry x="35.05000000000001" y="40" width="50" height="10" as="geometry" />
        </mxCell>
        <mxCell id="7yBYphcbDWLp9bj1Q6KP-81" value="" style="group" vertex="1" connectable="0" parent="7yBYphcbDWLp9bj1Q6KP-210">
          <mxGeometry x="223" y="120" width="140" height="50" as="geometry" />
        </mxCell>
        <mxCell id="7yBYphcbDWLp9bj1Q6KP-82" value="" style="group;rotation=180;labelPosition=center;verticalLabelPosition=top;align=center;verticalAlign=bottom;" vertex="1" connectable="0" parent="7yBYphcbDWLp9bj1Q6KP-81">
          <mxGeometry width="140" height="50" as="geometry" />
        </mxCell>
        <mxCell id="7yBYphcbDWLp9bj1Q6KP-83" value="" style="rounded=0;whiteSpace=wrap;html=1;fillColor=#f5f5f5;fontColor=#333333;strokeColor=#666666;rotation=0;" vertex="1" parent="7yBYphcbDWLp9bj1Q6KP-82">
          <mxGeometry y="10" width="121.33333333333333" height="40" as="geometry" />
        </mxCell>
        <mxCell id="7yBYphcbDWLp9bj1Q6KP-84" value="" style="aspect=fixed;sketch=0;html=1;dashed=0;whitespace=wrap;verticalLabelPosition=bottom;verticalAlign=top;fillColor=#2875E2;strokeColor=#ffffff;points=[[0.005,0.63,0],[0.1,0.2,0],[0.9,0.2,0],[0.5,0,0],[0.995,0.63,0],[0.72,0.99,0],[0.5,1,0],[0.28,0.99,0]];shape=mxgraph.kubernetes.icon2;prIcon=pod;rotation=0;" vertex="1" parent="7yBYphcbDWLp9bj1Q6KP-82">
          <mxGeometry x="67" y="20" width="14.442133333333334" height="13.866666666666669" as="geometry" />
        </mxCell>
        <mxCell id="7yBYphcbDWLp9bj1Q6KP-90" value="&lt;font style=&quot;font-size: 8px;&quot;&gt;Product-service&lt;/font&gt;" style="text;html=1;align=center;verticalAlign=middle;whiteSpace=wrap;rounded=0;" vertex="1" parent="7yBYphcbDWLp9bj1Q6KP-82">
          <mxGeometry x="28.189999999999998" y="40" width="64.95" height="10" as="geometry" />
        </mxCell>
        <mxCell id="7yBYphcbDWLp9bj1Q6KP-85" value="" style="group" vertex="1" connectable="0" parent="7yBYphcbDWLp9bj1Q6KP-82">
          <mxGeometry x="10" y="20" width="104.13799999999999" height="20" as="geometry" />
        </mxCell>
        <mxCell id="7yBYphcbDWLp9bj1Q6KP-86" value="" style="group;rotation=0;" vertex="1" connectable="0" parent="7yBYphcbDWLp9bj1Q6KP-85">
          <mxGeometry width="76.61733333333336" height="20" as="geometry" />
        </mxCell>
        <mxCell id="7yBYphcbDWLp9bj1Q6KP-87" value="" style="aspect=fixed;sketch=0;html=1;dashed=0;whitespace=wrap;verticalLabelPosition=bottom;verticalAlign=top;fillColor=#2875E2;strokeColor=#ffffff;points=[[0.005,0.63,0],[0.1,0.2,0],[0.9,0.2,0],[0.5,0,0],[0.995,0.63,0],[0.72,0.99,0],[0.5,1,0],[0.28,0.99,0]];shape=mxgraph.kubernetes.icon2;prIcon=deploy;rotation=0;" vertex="1" parent="7yBYphcbDWLp9bj1Q6KP-86">
          <mxGeometry x="28" width="14.442133333333334" height="13.866666666666669" as="geometry" />
        </mxCell>
        <mxCell id="7yBYphcbDWLp9bj1Q6KP-88" value="" style="aspect=fixed;sketch=0;html=1;dashed=0;whitespace=wrap;verticalLabelPosition=bottom;verticalAlign=top;fillColor=#2875E2;strokeColor=#ffffff;points=[[0.005,0.63,0],[0.1,0.2,0],[0.9,0.2,0],[0.5,0,0],[0.995,0.63,0],[0.72,0.99,0],[0.5,1,0],[0.28,0.99,0]];shape=mxgraph.kubernetes.icon2;prIcon=svc;rotation=0;" vertex="1" parent="7yBYphcbDWLp9bj1Q6KP-86">
          <mxGeometry width="14.449066666666667" height="13.866666666666669" as="geometry" />
        </mxCell>
        <mxCell id="7yBYphcbDWLp9bj1Q6KP-89" value="" style="image;sketch=0;aspect=fixed;html=1;points=[];align=center;fontSize=12;image=img/lib/mscae/Docker.svg;rotation=0;" vertex="1" parent="7yBYphcbDWLp9bj1Q6KP-85">
          <mxGeometry x="83" width="16.910400000000003" height="13.866666666666669" as="geometry" />
        </mxCell>
        <mxCell id="7yBYphcbDWLp9bj1Q6KP-91" value="" style="group" vertex="1" connectable="0" parent="7yBYphcbDWLp9bj1Q6KP-210">
          <mxGeometry x="223" y="170" width="451" height="268.07" as="geometry" />
        </mxCell>
        <mxCell id="7yBYphcbDWLp9bj1Q6KP-92" value="" style="group;rotation=180;labelPosition=center;verticalLabelPosition=top;align=center;verticalAlign=bottom;" vertex="1" connectable="0" parent="7yBYphcbDWLp9bj1Q6KP-91">
          <mxGeometry width="451" height="268.07" as="geometry" />
        </mxCell>
        <mxCell id="7yBYphcbDWLp9bj1Q6KP-93" value="" style="rounded=0;whiteSpace=wrap;html=1;fillColor=#f5f5f5;fontColor=#333333;strokeColor=#666666;rotation=0;" vertex="1" parent="7yBYphcbDWLp9bj1Q6KP-92">
          <mxGeometry y="10" width="121.33333333333333" height="40" as="geometry" />
        </mxCell>
        <mxCell id="7yBYphcbDWLp9bj1Q6KP-94" value="" style="aspect=fixed;sketch=0;html=1;dashed=0;whitespace=wrap;verticalLabelPosition=bottom;verticalAlign=top;fillColor=#2875E2;strokeColor=#ffffff;points=[[0.005,0.63,0],[0.1,0.2,0],[0.9,0.2,0],[0.5,0,0],[0.995,0.63,0],[0.72,0.99,0],[0.5,1,0],[0.28,0.99,0]];shape=mxgraph.kubernetes.icon2;prIcon=pod;rotation=0;" vertex="1" parent="7yBYphcbDWLp9bj1Q6KP-92">
          <mxGeometry x="67" y="20" width="14.442133333333334" height="13.866666666666669" as="geometry" />
        </mxCell>
        <mxCell id="7yBYphcbDWLp9bj1Q6KP-95" value="" style="group" vertex="1" connectable="0" parent="7yBYphcbDWLp9bj1Q6KP-92">
          <mxGeometry x="10" y="20" width="104.13799999999999" height="20" as="geometry" />
        </mxCell>
        <mxCell id="7yBYphcbDWLp9bj1Q6KP-96" value="" style="group;rotation=0;" vertex="1" connectable="0" parent="7yBYphcbDWLp9bj1Q6KP-95">
          <mxGeometry width="76.61733333333336" height="20" as="geometry" />
        </mxCell>
        <mxCell id="7yBYphcbDWLp9bj1Q6KP-97" value="" style="aspect=fixed;sketch=0;html=1;dashed=0;whitespace=wrap;verticalLabelPosition=bottom;verticalAlign=top;fillColor=#2875E2;strokeColor=#ffffff;points=[[0.005,0.63,0],[0.1,0.2,0],[0.9,0.2,0],[0.5,0,0],[0.995,0.63,0],[0.72,0.99,0],[0.5,1,0],[0.28,0.99,0]];shape=mxgraph.kubernetes.icon2;prIcon=deploy;rotation=0;" vertex="1" parent="7yBYphcbDWLp9bj1Q6KP-96">
          <mxGeometry x="28" width="14.442133333333334" height="13.866666666666669" as="geometry" />
        </mxCell>
        <mxCell id="7yBYphcbDWLp9bj1Q6KP-98" value="" style="aspect=fixed;sketch=0;html=1;dashed=0;whitespace=wrap;verticalLabelPosition=bottom;verticalAlign=top;fillColor=#2875E2;strokeColor=#ffffff;points=[[0.005,0.63,0],[0.1,0.2,0],[0.9,0.2,0],[0.5,0,0],[0.995,0.63,0],[0.72,0.99,0],[0.5,1,0],[0.28,0.99,0]];shape=mxgraph.kubernetes.icon2;prIcon=svc;rotation=0;" vertex="1" parent="7yBYphcbDWLp9bj1Q6KP-96">
          <mxGeometry width="14.449066666666667" height="13.866666666666669" as="geometry" />
        </mxCell>
        <mxCell id="7yBYphcbDWLp9bj1Q6KP-99" value="" style="image;sketch=0;aspect=fixed;html=1;points=[];align=center;fontSize=12;image=img/lib/mscae/Docker.svg;rotation=0;" vertex="1" parent="7yBYphcbDWLp9bj1Q6KP-95">
          <mxGeometry x="83" width="16.910400000000003" height="13.866666666666669" as="geometry" />
        </mxCell>
        <mxCell id="7yBYphcbDWLp9bj1Q6KP-100" value="&lt;font style=&quot;font-size: 8px;&quot;&gt;Cart-service&lt;/font&gt;" style="text;html=1;align=center;verticalAlign=middle;whiteSpace=wrap;rounded=0;" vertex="1" parent="7yBYphcbDWLp9bj1Q6KP-91">
          <mxGeometry x="35.05000000000001" y="40" width="50" height="10" as="geometry" />
        </mxCell>
        <mxCell id="7yBYphcbDWLp9bj1Q6KP-121" value="" style="group" vertex="1" connectable="0" parent="7yBYphcbDWLp9bj1Q6KP-210">
          <mxGeometry x="223" y="320" width="140" height="50" as="geometry" />
        </mxCell>
        <mxCell id="7yBYphcbDWLp9bj1Q6KP-122" value="" style="group;rotation=180;labelPosition=center;verticalLabelPosition=top;align=center;verticalAlign=bottom;" vertex="1" connectable="0" parent="7yBYphcbDWLp9bj1Q6KP-121">
          <mxGeometry width="140" height="50" as="geometry" />
        </mxCell>
        <mxCell id="7yBYphcbDWLp9bj1Q6KP-123" value="" style="rounded=0;whiteSpace=wrap;html=1;fillColor=#f5f5f5;fontColor=#333333;strokeColor=#666666;rotation=0;" vertex="1" parent="7yBYphcbDWLp9bj1Q6KP-122">
          <mxGeometry y="10" width="121.33333333333333" height="40" as="geometry" />
        </mxCell>
        <mxCell id="7yBYphcbDWLp9bj1Q6KP-124" value="" style="aspect=fixed;sketch=0;html=1;dashed=0;whitespace=wrap;verticalLabelPosition=bottom;verticalAlign=top;fillColor=#2875E2;strokeColor=#ffffff;points=[[0.005,0.63,0],[0.1,0.2,0],[0.9,0.2,0],[0.5,0,0],[0.995,0.63,0],[0.72,0.99,0],[0.5,1,0],[0.28,0.99,0]];shape=mxgraph.kubernetes.icon2;prIcon=pod;rotation=0;" vertex="1" parent="7yBYphcbDWLp9bj1Q6KP-122">
          <mxGeometry x="67" y="20" width="14.442133333333334" height="13.866666666666669" as="geometry" />
        </mxCell>
        <mxCell id="7yBYphcbDWLp9bj1Q6KP-125" value="" style="group" vertex="1" connectable="0" parent="7yBYphcbDWLp9bj1Q6KP-122">
          <mxGeometry x="10" y="20" width="104.13799999999999" height="20" as="geometry" />
        </mxCell>
        <mxCell id="7yBYphcbDWLp9bj1Q6KP-126" value="" style="group;rotation=0;" vertex="1" connectable="0" parent="7yBYphcbDWLp9bj1Q6KP-125">
          <mxGeometry width="76.61733333333336" height="20" as="geometry" />
        </mxCell>
        <mxCell id="7yBYphcbDWLp9bj1Q6KP-127" value="" style="aspect=fixed;sketch=0;html=1;dashed=0;whitespace=wrap;verticalLabelPosition=bottom;verticalAlign=top;fillColor=#2875E2;strokeColor=#ffffff;points=[[0.005,0.63,0],[0.1,0.2,0],[0.9,0.2,0],[0.5,0,0],[0.995,0.63,0],[0.72,0.99,0],[0.5,1,0],[0.28,0.99,0]];shape=mxgraph.kubernetes.icon2;prIcon=deploy;rotation=0;" vertex="1" parent="7yBYphcbDWLp9bj1Q6KP-126">
          <mxGeometry x="28" width="14.442133333333334" height="13.866666666666669" as="geometry" />
        </mxCell>
        <mxCell id="7yBYphcbDWLp9bj1Q6KP-128" value="" style="aspect=fixed;sketch=0;html=1;dashed=0;whitespace=wrap;verticalLabelPosition=bottom;verticalAlign=top;fillColor=#2875E2;strokeColor=#ffffff;points=[[0.005,0.63,0],[0.1,0.2,0],[0.9,0.2,0],[0.5,0,0],[0.995,0.63,0],[0.72,0.99,0],[0.5,1,0],[0.28,0.99,0]];shape=mxgraph.kubernetes.icon2;prIcon=svc;rotation=0;" vertex="1" parent="7yBYphcbDWLp9bj1Q6KP-126">
          <mxGeometry width="14.449066666666667" height="13.866666666666669" as="geometry" />
        </mxCell>
        <mxCell id="7yBYphcbDWLp9bj1Q6KP-129" value="" style="image;sketch=0;aspect=fixed;html=1;points=[];align=center;fontSize=12;image=img/lib/mscae/Docker.svg;rotation=0;" vertex="1" parent="7yBYphcbDWLp9bj1Q6KP-125">
          <mxGeometry x="83" width="16.910400000000003" height="13.866666666666669" as="geometry" />
        </mxCell>
        <mxCell id="7yBYphcbDWLp9bj1Q6KP-130" value="&lt;font style=&quot;font-size: 8px;&quot;&gt;Category-service&lt;/font&gt;" style="text;html=1;align=center;verticalAlign=middle;whiteSpace=wrap;rounded=0;" vertex="1" parent="7yBYphcbDWLp9bj1Q6KP-122">
          <mxGeometry x="29.589999999999996" y="40" width="64.95" height="10" as="geometry" />
        </mxCell>
        <mxCell id="7yBYphcbDWLp9bj1Q6KP-131" value="" style="group" vertex="1" connectable="0" parent="7yBYphcbDWLp9bj1Q6KP-210">
          <mxGeometry x="223" y="370" width="140" height="50" as="geometry" />
        </mxCell>
        <mxCell id="7yBYphcbDWLp9bj1Q6KP-132" value="" style="group;rotation=180;labelPosition=center;verticalLabelPosition=top;align=center;verticalAlign=bottom;" vertex="1" connectable="0" parent="7yBYphcbDWLp9bj1Q6KP-131">
          <mxGeometry width="140" height="50" as="geometry" />
        </mxCell>
        <mxCell id="7yBYphcbDWLp9bj1Q6KP-133" value="" style="rounded=0;whiteSpace=wrap;html=1;fillColor=#f5f5f5;fontColor=#333333;strokeColor=#666666;rotation=0;" vertex="1" parent="7yBYphcbDWLp9bj1Q6KP-132">
          <mxGeometry y="10" width="121.33333333333333" height="40" as="geometry" />
        </mxCell>
        <mxCell id="7yBYphcbDWLp9bj1Q6KP-134" value="" style="aspect=fixed;sketch=0;html=1;dashed=0;whitespace=wrap;verticalLabelPosition=bottom;verticalAlign=top;fillColor=#2875E2;strokeColor=#ffffff;points=[[0.005,0.63,0],[0.1,0.2,0],[0.9,0.2,0],[0.5,0,0],[0.995,0.63,0],[0.72,0.99,0],[0.5,1,0],[0.28,0.99,0]];shape=mxgraph.kubernetes.icon2;prIcon=pod;rotation=0;" vertex="1" parent="7yBYphcbDWLp9bj1Q6KP-132">
          <mxGeometry x="67" y="20" width="14.442133333333334" height="13.866666666666669" as="geometry" />
        </mxCell>
        <mxCell id="7yBYphcbDWLp9bj1Q6KP-135" value="" style="group" vertex="1" connectable="0" parent="7yBYphcbDWLp9bj1Q6KP-132">
          <mxGeometry x="10" y="20" width="104.13799999999999" height="20" as="geometry" />
        </mxCell>
        <mxCell id="7yBYphcbDWLp9bj1Q6KP-136" value="" style="group;rotation=0;" vertex="1" connectable="0" parent="7yBYphcbDWLp9bj1Q6KP-135">
          <mxGeometry width="76.61733333333336" height="20" as="geometry" />
        </mxCell>
        <mxCell id="7yBYphcbDWLp9bj1Q6KP-137" value="" style="aspect=fixed;sketch=0;html=1;dashed=0;whitespace=wrap;verticalLabelPosition=bottom;verticalAlign=top;fillColor=#2875E2;strokeColor=#ffffff;points=[[0.005,0.63,0],[0.1,0.2,0],[0.9,0.2,0],[0.5,0,0],[0.995,0.63,0],[0.72,0.99,0],[0.5,1,0],[0.28,0.99,0]];shape=mxgraph.kubernetes.icon2;prIcon=deploy;rotation=0;" vertex="1" parent="7yBYphcbDWLp9bj1Q6KP-136">
          <mxGeometry x="28" width="14.442133333333334" height="13.866666666666669" as="geometry" />
        </mxCell>
        <mxCell id="7yBYphcbDWLp9bj1Q6KP-138" value="" style="aspect=fixed;sketch=0;html=1;dashed=0;whitespace=wrap;verticalLabelPosition=bottom;verticalAlign=top;fillColor=#2875E2;strokeColor=#ffffff;points=[[0.005,0.63,0],[0.1,0.2,0],[0.9,0.2,0],[0.5,0,0],[0.995,0.63,0],[0.72,0.99,0],[0.5,1,0],[0.28,0.99,0]];shape=mxgraph.kubernetes.icon2;prIcon=svc;rotation=0;" vertex="1" parent="7yBYphcbDWLp9bj1Q6KP-136">
          <mxGeometry width="14.449066666666667" height="13.866666666666669" as="geometry" />
        </mxCell>
        <mxCell id="7yBYphcbDWLp9bj1Q6KP-139" value="" style="image;sketch=0;aspect=fixed;html=1;points=[];align=center;fontSize=12;image=img/lib/mscae/Docker.svg;rotation=0;" vertex="1" parent="7yBYphcbDWLp9bj1Q6KP-135">
          <mxGeometry x="83" width="16.910400000000003" height="13.866666666666669" as="geometry" />
        </mxCell>
        <mxCell id="7yBYphcbDWLp9bj1Q6KP-140" value="&lt;font style=&quot;font-size: 8px;&quot;&gt;Search-service&lt;/font&gt;" style="text;html=1;align=center;verticalAlign=middle;whiteSpace=wrap;rounded=0;" vertex="1" parent="7yBYphcbDWLp9bj1Q6KP-132">
          <mxGeometry x="29.589999999999996" y="40" width="64.95" height="10" as="geometry" />
        </mxCell>
        <mxCell id="7yBYphcbDWLp9bj1Q6KP-153" value="&lt;font style=&quot;font-size: 8px;&quot;&gt;JWT&lt;/font&gt;" style="dashed=0;outlineConnect=0;html=1;align=center;labelPosition=center;verticalLabelPosition=bottom;verticalAlign=top;shape=mxgraph.weblogos.json_2" vertex="1" parent="7yBYphcbDWLp9bj1Q6KP-210">
          <mxGeometry x="54.900000000000006" y="170" width="35.1" height="10" as="geometry" />
        </mxCell>
        <mxCell id="7yBYphcbDWLp9bj1Q6KP-175" value="" style="group" vertex="1" connectable="0" parent="7yBYphcbDWLp9bj1Q6KP-210">
          <mxGeometry x="490" y="220" width="184" height="208.07" as="geometry" />
        </mxCell>
        <mxCell id="7yBYphcbDWLp9bj1Q6KP-163" value="" style="rounded=0;whiteSpace=wrap;html=1;fillColor=#f5f5f5;fontColor=#333333;strokeColor=#666666;rotation=0;" vertex="1" parent="7yBYphcbDWLp9bj1Q6KP-175">
          <mxGeometry x="-20" width="185.19" height="40" as="geometry" />
        </mxCell>
        <mxCell id="7yBYphcbDWLp9bj1Q6KP-164" value="" style="aspect=fixed;sketch=0;html=1;dashed=0;whitespace=wrap;verticalLabelPosition=bottom;verticalAlign=top;fillColor=#2875E2;strokeColor=#ffffff;points=[[0.005,0.63,0],[0.1,0.2,0],[0.9,0.2,0],[0.5,0,0],[0.995,0.63,0],[0.72,0.99,0],[0.5,1,0],[0.28,0.99,0]];shape=mxgraph.kubernetes.icon2;prIcon=pod;rotation=0;" vertex="1" parent="7yBYphcbDWLp9bj1Q6KP-175">
          <mxGeometry x="75.85666666666665" y="10" width="13.479324444444446" height="12.942222222222224" as="geometry" />
        </mxCell>
        <mxCell id="7yBYphcbDWLp9bj1Q6KP-170" value="&lt;font style=&quot;font-size: 8px;&quot;&gt;Postgres-service&lt;/font&gt;" style="text;html=1;align=center;verticalAlign=middle;whiteSpace=wrap;rounded=0;" vertex="1" parent="7yBYphcbDWLp9bj1Q6KP-175">
          <mxGeometry x="35.93023809523808" y="30" width="78.86785714285712" height="10" as="geometry" />
        </mxCell>
        <mxCell id="7yBYphcbDWLp9bj1Q6KP-166" value="" style="group;rotation=0;" vertex="1" connectable="0" parent="7yBYphcbDWLp9bj1Q6KP-175">
          <mxGeometry x="12.142380952380954" y="10" width="93.03533333333337" height="20" as="geometry" />
        </mxCell>
        <mxCell id="7yBYphcbDWLp9bj1Q6KP-167" value="" style="aspect=fixed;sketch=0;html=1;dashed=0;whitespace=wrap;verticalLabelPosition=bottom;verticalAlign=top;fillColor=#2875E2;strokeColor=#ffffff;points=[[0.005,0.63,0],[0.1,0.2,0],[0.9,0.2,0],[0.5,0,0],[0.995,0.63,0],[0.72,0.99,0],[0.5,1,0],[0.28,0.99,0]];shape=mxgraph.kubernetes.icon2;prIcon=deploy;rotation=0;" vertex="1" parent="7yBYphcbDWLp9bj1Q6KP-166">
          <mxGeometry x="34" width="13.479324444444446" height="12.942222222222224" as="geometry" />
        </mxCell>
        <mxCell id="7yBYphcbDWLp9bj1Q6KP-168" value="" style="aspect=fixed;sketch=0;html=1;dashed=0;whitespace=wrap;verticalLabelPosition=bottom;verticalAlign=top;fillColor=#2875E2;strokeColor=#ffffff;points=[[0.005,0.63,0],[0.1,0.2,0],[0.9,0.2,0],[0.5,0,0],[0.995,0.63,0],[0.72,0.99,0],[0.5,1,0],[0.28,0.99,0]];shape=mxgraph.kubernetes.icon2;prIcon=svc;rotation=0;" vertex="1" parent="7yBYphcbDWLp9bj1Q6KP-166">
          <mxGeometry width="13.485795555555557" height="12.942222222222224" as="geometry" />
        </mxCell>
        <mxCell id="7yBYphcbDWLp9bj1Q6KP-169" value="" style="image;sketch=0;aspect=fixed;html=1;points=[];align=center;fontSize=12;image=img/lib/mscae/Docker.svg;rotation=0;" vertex="1" parent="7yBYphcbDWLp9bj1Q6KP-175">
          <mxGeometry x="135.1880952380952" y="10" width="15.783040000000003" height="12.942222222222224" as="geometry" />
        </mxCell>
        <mxCell id="7yBYphcbDWLp9bj1Q6KP-174" value="&lt;div&gt;&lt;br&gt;&lt;/div&gt;&lt;div&gt;&lt;br&gt;&lt;/div&gt;&lt;div&gt;&lt;br&gt;&lt;/div&gt;" style="aspect=fixed;sketch=0;html=1;dashed=0;whitespace=wrap;verticalLabelPosition=bottom;verticalAlign=top;fillColor=#2875E2;strokeColor=#ffffff;points=[[0.005,0.63,0],[0.1,0.2,0],[0.9,0.2,0],[0.5,0,0],[0.995,0.63,0],[0.72,0.99,0],[0.5,1,0],[0.28,0.99,0]];shape=mxgraph.kubernetes.icon2;prIcon=job;horizontal=1;fontSize=17;" vertex="1" parent="7yBYphcbDWLp9bj1Q6KP-175">
          <mxGeometry x="105.18" y="11.469999999999999" width="10.42" height="10" as="geometry" />
        </mxCell>
        <mxCell id="7yBYphcbDWLp9bj1Q6KP-215" value="" style="image;aspect=fixed;html=1;points=[];align=center;fontSize=12;image=img/lib/azure2/databases/Azure_Database_PostgreSQL_Server.svg;" vertex="1" parent="7yBYphcbDWLp9bj1Q6KP-175">
          <mxGeometry x="-13.899999999999977" y="10" width="13.9" height="18.53" as="geometry" />
        </mxCell>
        <mxCell id="7yBYphcbDWLp9bj1Q6KP-179" style="edgeStyle=orthogonalEdgeStyle;rounded=0;orthogonalLoop=1;jettySize=auto;html=1;entryX=0;entryY=0.5;entryDx=0;entryDy=0;" edge="1" parent="7yBYphcbDWLp9bj1Q6KP-210" source="7yBYphcbDWLp9bj1Q6KP-35" target="7yBYphcbDWLp9bj1Q6KP-163">
          <mxGeometry relative="1" as="geometry" />
        </mxCell>
        <mxCell id="7yBYphcbDWLp9bj1Q6KP-181" style="edgeStyle=orthogonalEdgeStyle;rounded=0;orthogonalLoop=1;jettySize=auto;html=1;exitX=1;exitY=0.5;exitDx=0;exitDy=0;entryX=0;entryY=0.5;entryDx=0;entryDy=0;" edge="1" parent="7yBYphcbDWLp9bj1Q6KP-210" source="7yBYphcbDWLp9bj1Q6KP-83" target="7yBYphcbDWLp9bj1Q6KP-163">
          <mxGeometry relative="1" as="geometry" />
        </mxCell>
        <mxCell id="7yBYphcbDWLp9bj1Q6KP-182" style="edgeStyle=orthogonalEdgeStyle;rounded=0;orthogonalLoop=1;jettySize=auto;html=1;entryX=0;entryY=0.5;entryDx=0;entryDy=0;" edge="1" parent="7yBYphcbDWLp9bj1Q6KP-210" source="7yBYphcbDWLp9bj1Q6KP-93" target="7yBYphcbDWLp9bj1Q6KP-163">
          <mxGeometry relative="1" as="geometry" />
        </mxCell>
        <mxCell id="7yBYphcbDWLp9bj1Q6KP-183" style="edgeStyle=orthogonalEdgeStyle;rounded=0;orthogonalLoop=1;jettySize=auto;html=1;exitX=1;exitY=0.5;exitDx=0;exitDy=0;entryX=0;entryY=0.5;entryDx=0;entryDy=0;" edge="1" parent="7yBYphcbDWLp9bj1Q6KP-210" source="7yBYphcbDWLp9bj1Q6KP-103" target="7yBYphcbDWLp9bj1Q6KP-163">
          <mxGeometry relative="1" as="geometry" />
        </mxCell>
        <mxCell id="7yBYphcbDWLp9bj1Q6KP-184" style="edgeStyle=orthogonalEdgeStyle;rounded=0;orthogonalLoop=1;jettySize=auto;html=1;entryX=0;entryY=0.5;entryDx=0;entryDy=0;" edge="1" parent="7yBYphcbDWLp9bj1Q6KP-210" source="7yBYphcbDWLp9bj1Q6KP-113" target="7yBYphcbDWLp9bj1Q6KP-163">
          <mxGeometry relative="1" as="geometry" />
        </mxCell>
        <mxCell id="7yBYphcbDWLp9bj1Q6KP-185" style="edgeStyle=orthogonalEdgeStyle;rounded=0;orthogonalLoop=1;jettySize=auto;html=1;entryX=0;entryY=0.5;entryDx=0;entryDy=0;" edge="1" parent="7yBYphcbDWLp9bj1Q6KP-210" source="7yBYphcbDWLp9bj1Q6KP-123" target="7yBYphcbDWLp9bj1Q6KP-163">
          <mxGeometry relative="1" as="geometry" />
        </mxCell>
        <mxCell id="7yBYphcbDWLp9bj1Q6KP-186" style="edgeStyle=orthogonalEdgeStyle;rounded=0;orthogonalLoop=1;jettySize=auto;html=1;entryX=0;entryY=0.5;entryDx=0;entryDy=0;" edge="1" parent="7yBYphcbDWLp9bj1Q6KP-210" source="7yBYphcbDWLp9bj1Q6KP-133" target="7yBYphcbDWLp9bj1Q6KP-163">
          <mxGeometry relative="1" as="geometry" />
        </mxCell>
        <mxCell id="7yBYphcbDWLp9bj1Q6KP-25" value="&lt;font style=&quot;font-size: 9px;&quot;&gt;Entorno Kubernetes (Minikube)&lt;/font&gt;" style="editableCssRules=.*;html=1;shape=image;verticalLabelPosition=bottom;labelBackgroundColor=#ffffff;verticalAlign=top;aspect=fixed;imageAspect=0;image=data:image/svg+xml,PHN2ZyB4bWxucz0iaHR0cDovL3d3dy53My5vcmcvMjAwMC9zdmciIHhtbG5zOnY9Imh0dHBzOi8vdmVjdGEuaW8vbmFubyIgd2lkdGg9IjcwMi44NDYzMTM0NzY1NjI1IiBoZWlnaHQ9IjY4MS45NjcxMDIwNTA3ODEyIiB2aWV3Qm94PSIxMC4wMDEwMjYxNTM1NjQ0NTMgMTAuMDAwOTMzNjQ3MTU1NzYyIDcwMi44NDYzMTM0NzY1NjI1IDY4MS45NjcxMDIwNTA3ODEyIj4mI3hhOwk8c3R5bGUgdHlwZT0idGV4dC9jc3MiPiYjeGE7CS5zdDB7ZmlsbDojMzI2Y2U1O30mI3hhOwkuc3Qxe2ZpbGw6I2ZmZjt9JiN4YTsJPC9zdHlsZT4mI3hhOwk8cGF0aCBjbGFzcz0ic3QwIiBkPSJNMzU4Ljk4NyAxMC4wNmMtNi4yMTMuMzEzLTEyLjMwMSAxLjg1NC0xNy45MDYgNC41MzFMOTYuNzM3IDEzMS4zNDJjLTEyLjgxMSA2LjExOC0yMi4xMTYgMTcuNjg5LTI1LjI4MSAzMS40MzhsLTYwLjI4MSAyNjIuMjVjLTIuODEyIDEyLjIwNy0uNTI0IDI1LjAyNCA2LjM0NCAzNS41MzFhNDYuMzUgNDYuMzUgMCAwIDAgMi42NTYgMy42ODhsMTY5LjEyNSAyMTAuMjgxYzguODY4IDExLjAyMiAyMi4zMTMgMTcuNDQgMzYuNTMxIDE3LjQzOGwyNzEuMjE5LS4wNjJjMTQuMjEyLjAxIDI3LjY1Ny02LjM5NiAzNi41MzEtMTcuNDA2bDE2OS4wNjMtMjEwLjMxM2M4Ljg3My0xMS4wMjggMTIuMTk3LTI1LjQ2NCA5LjAzMS0zOS4yMTlsLTYwLjM3NS0yNjIuMjVjLTMuMTY1LTEzLjc0OC0xMi40Ny0yNS4zMTktMjUuMjgxLTMxLjQzN0wzODEuNjQzIDE0LjU5MmMtNy4wNS0zLjM2OC0xNC44NDEtNC45MjYtMjIuNjU2LTQuNTMxeiIvPiYjeGE7CTxwYXRoIGNsYXNzPSJzdDEgc3QyIiBkPSJNMzYxLjQwOCA5OS4zMDhjLTguMDc3LjAwMS0xNC42MjYgNy4yNzYtMTQuNjI1IDE2LjI1IDAgLjEzOC4wMjguMjY5LjAzMS40MDYtLjAxMiAxLjIxOS0uMDcxIDIuNjg4LS4wMzEgMy43NS4xOTMgNS4xNzYgMS4zMjEgOS4xMzcgMiAxMy45MDYgMS4yMyAxMC4yMDcgMi4yNjEgMTguNjY3IDEuNjI1IDI2LjUzMS0uNjE5IDIuOTY1LTIuODAzIDUuNjc3LTQuNzUgNy41NjNsLS4zNDQgNi4xODhjLTguNzc3LjcyNy0xNy42MTIgMi4wNTktMjYuNDM3IDQuMDYzLTM3Ljk3NSA4LjYyMi03MC42NyAyOC4xODMtOTUuNTYyIDU0LjU5NC0xLjYxNS0xLjEwMi00LjQ0MS0zLjEyOS01LjI4MS0zLjc1LTIuNjExLjM1My01LjI1IDEuMTU4LTguNjg3LS44NDQtNi41NDUtNC40MDYtMTIuNTA2LTEwLjQ4Ny0xOS43MTktMTcuODEyLTMuMzA1LTMuNTA0LTUuNjk4LTYuODQxLTkuNjI1LTEwLjIxOS0uODkyLS43NjctMi4yNTMtMS44MDUtMy4yNS0yLjU5NC0zLjA3LTIuNDQ4LTYuNjkxLTMuNzI0LTEwLjE4Ny0zLjg0NC00LjQ5Ni0uMTU0LTguODI0IDEuNjA0LTExLjY1NiA1LjE1Ni01LjAzNSA2LjMxNS0zLjQyMyAxNS45NjggMy41OTQgMjEuNTYzLjA3MS4wNTcuMTQ3LjEwMS4yMTkuMTU2Ljk2NC43ODIgMi4xNDUgMS43ODMgMy4wMzEgMi40MzggNC4xNjcgMy4wNzcgNy45NzMgNC42NTEgMTIuMTI1IDcuMDk0IDguNzQ3IDUuNDAyIDE1Ljk5OCA5Ljg4MSAyMS43NSAxNS4yODEgMi4yNDYgMi4zOTQgMi42MzkgNi42MTMgMi45MzggOC40MzhsNC42ODggNC4xODhjLTI1LjA5MyAzNy43NjQtMzYuNzA3IDg0LjQwOS0yOS44NDQgMTMxLjkzOGwtNi4xMjUgMS43ODFjLTEuNjE0IDIuMDg1LTMuODk1IDUuMzY1LTYuMjgxIDYuMzQ0LTcuNTI1IDIuMzctMTUuOTk0IDMuMjQxLTI2LjIxOSA0LjMxMy00LjguMzk5LTguOTQyLjE2MS0xNC4wMzEgMS4xMjUtMS4xMi4yMTItMi42ODEuNjE5LTMuOTA2LjkwNi0uMDQzLjAwOS0uMDgyLjAyMi0uMTI1LjAzMS0uMDY3LjAxNS0uMTU1LjA0OC0uMjE5LjA2My04LjYyIDIuMDgzLTE0LjE1OCAxMC4wMDYtMTIuMzc1IDE3LjgxM3MxMC4yMDMgMTIuNTU3IDE4Ljg3NSAxMC42ODhjLjA2My0uMDE0LjE1NC0uMDE3LjIxOS0uMDMxLjA5OC0uMDIyLjE4NC0uMDcuMjgxLS4wOTQgMS4yMDktLjI2NSAyLjcyNC0uNTYxIDMuNzgxLS44NDQgNS4wMDMtMS4zNCA4LjYyNy0zLjMwOCAxMy4xMjUtNS4wMzEgOS42NzctMy40NzEgMTcuNjkyLTYuMzcgMjUuNS03LjUgMy4yNjEtLjI1NSA2LjY5NyAyLjAxMiA4LjQwNiAyLjk2OWw2LjM3NS0xLjA5NGMxNC42NyA0NS40ODMgNDUuNDE0IDgyLjI0NSA4NC4zNDQgMTA1LjMxMmwtMi42NTYgNi4zNzVjLjk1NyAyLjQ3NSAyLjAxMyA1LjgyNSAxLjMgOC4yNjktMi44MzkgNy4zNjEtNy43MDEgMTUuMTMxLTEzLjIzOCAyMy43OTMtMi42ODEgNC4wMDItNS40MjUgNy4xMDgtNy44NDQgMTEuNjg4LS41NzkgMS4wOTYtMS4zMTYgMi43NzktMS44NzUgMy45MzgtMy43NTkgOC4wNDItMS4wMDIgMTcuMzA1IDYuMjE5IDIwLjc4MSA3LjI2NiAzLjQ5OCAxNi4yODQtLjE5MSAyMC4xODctOC4yNS4wMDYtLjAxMS4wMjYtLjAyLjAzMS0uMDMxcy0uMDA0LS4wMjMgMC0uMDMxYy41NTYtMS4xNDMgMS4zNDQtMi42NDQgMS44MTMtMy43MTkgMi4wNzItNC43NDcgMi43NjItOC44MTUgNC4yMTktMTMuNDA2IDMuODctOS43MiA1Ljk5Ni0xOS45MTkgMTEuMzIzLTI2LjI3NCAxLjQ1OS0xLjc0IDMuODM3LTIuNDA5IDYuMzAyLTMuMDdsMy4zMTMtNmMzMy45MzggMTMuMDI3IDcxLjkyNyAxNi41MjIgMTA5Ljg3NSA3LjkwNmExODkuNzcgMTg5Ljc3IDAgMCAwIDI1LjA5NC03LjU2MmwzLjEyNSA1LjYyNWMyLjUwNi44MTUgNS4yNCAxLjIzNiA3LjQ2OSA0LjUzMSAzLjk4NSA2LjgwOSA2LjcxMSAxNC44NjQgMTAuMDMxIDI0LjU5NCAxLjQ1NyA0LjU5MSAyLjE3OCA4LjY1OSA0LjI1IDEzLjQwNi40NzIgMS4wODIgMS4yNTYgMi42MDUgMS44MTMgMy43NSAzLjg5NSA4LjA4NSAxMi45NDIgMTEuNzg3IDIwLjIxOSA4LjI4MSA3LjIxOS0zLjQ3OCA5Ljk4LTEyLjc0IDYuMjE5LTIwLjc4MWwtMS45MDYtMy45MzdjLTIuNDE5LTQuNTgtNS4xNjMtNy42NTQtNy44NDQtMTEuNjU2LTUuNTM3LTguNjYyLTEwLjEzLTE1Ljg1OC0xMi45NjktMjMuMjE5LTEuMTg3LTMuNzk3LjItNi4xNTggMS4xMjUtOC42MjUtLjU1NC0uNjM1LTEuNzM5LTQuMjItMi40MzctNS45MDYgNDAuNDU3LTIzLjg4OCA3MC4yOTktNjIuMDIxIDg0LjMxMy0xMDYuMDYyIDEuODkyLjI5NyA1LjE4Mi44NzkgNi4yNSAxLjA5NCAyLjItMS40NTEgNC4yMjItMy4zNDQgOC4xODgtMy4wMzEgNy44MDggMS4xMjkgMTUuODIzIDQuMDMgMjUuNSA3LjUgNC40OTggMS43MjMgOC4xMjIgMy43MjMgMTMuMTI1IDUuMDYzIDEuMDU3LjI4MyAyLjU3Mi41NDcgMy43ODEuODEzLjA5Ny4wMjQuMTgzLjA3MS4yODEuMDk0LjA2NS4wMTUuMTU2LjAxNy4yMTkuMDMxIDguNjcyIDEuODY3IDE3LjA5NC0yLjg3OSAxOC44NzUtMTAuNjg3cy0zLjc1NC0xNS43MzItMTIuMzc1LTE3LjgxMmMtMS4yNTQtLjI4NS0zLjAzMi0uNzY5LTQuMjUtMS01LjA4OS0uOTY0LTkuMjMxLS43MjYtMTQuMDMxLTEuMTI1LTEwLjIyNS0xLjA3MS0xOC42OTMtMS45NDMtMjYuMjE5LTQuMzEyLTMuMDY4LTEuMTktNS4yNTEtNC44NDEtNi4zMTMtNi4zNDRsLTUuOTA2LTEuNzE5YzMuMDYyLTIyLjE1NCAyLjIzNy00NS4yMTEtMy4wNjItNjguMjgxLTUuMzQ4LTIzLjI4NS0xNC44LTQ0LjU4MS0yNy40MDYtNjMuMzQ0bDUuMTg4LTQuNjU2Yy4yMzctMi42MjQuMDMzLTUuMzc2IDIuNzUtOC4yODEgNS43NTEtNS40MDEgMTMuMDAzLTkuODc5IDIxLjc1LTE1LjI4MSA0LjE1Mi0yLjQ0MyA3Ljk5LTQuMDE3IDEyLjE1Ni03LjA5NC45NDItLjY5NiAyLjIyOS0xLjc5OCAzLjIxOS0yLjU5NCA3LjAxNS01LjU5NiA4LjYzMS0xNS4yNDggMy41OTQtMjEuNTYycy0xNC43OTctNi45MDktMjEuODEyLTEuMzEyYy0uOTk5Ljc5MS0yLjM1NCAxLjgyMy0zLjI1IDIuNTk0LTMuOTI3IDMuMzc4LTYuMzUxIDYuNzE0LTkuNjU2IDEwLjIxOS03LjIxMiA3LjMyNi0xMy4xNzQgMTMuNDM4LTE5LjcxOSAxNy44NDQtMi44MzYgMS42NTEtNi45OSAxLjA4LTguODc1Ljk2OWwtNS41NjIgMy45NjljLTMxLjcxOS0zMy4yNjEtNzQuOTA1LTU0LjUyNS0xMjEuNDA2LTU4LjY1NmwtLjM0NC02LjUzMWMtMS45MDQtMS44MjItNC4yMDMtMy4zNzctNC43ODEtNy4zMTItLjYzNi03Ljg2NC40MjYtMTYuMzI1IDEuNjU2LTI2LjUzMS42NzktNC43NjkgMS44MDctOC43MyAyLTEzLjkwNi4wNDQtMS4xNzctLjAyNi0yLjg4NC0uMDMxLTQuMTU2LS4wMDEtOC45NzQtNi41NDgtMTYuMjUxLTE0LjYyNS0xNi4yNXptLTE4LjMxMiAxMTMuNDM4bC00LjM0NCA3Ni43MTktLjMxMi4xNTZjLS4yOTEgNi44NjMtNS45NCAxMi4zNDQtMTIuODc1IDEyLjM0NGExMi44MiAxMi44MiAwIDAgMS03LjU5NC0yLjQ2OWwtLjEyNS4wNjMtNjIuOTA2LTQ0LjU5NGMxOS4zMzQtMTkuMDExIDQ0LjA2My0zMy4wNiA3Mi41NjItMzkuNTMxIDUuMjA2LTEuMTgyIDEwLjQxLTIuMDU5IDE1LjU5NC0yLjY4N3ptMzYuNjU2IDBjMzMuMjczIDQuMDkyIDY0LjA0NSAxOS4xNTkgODcuNjI1IDQyLjI1bC02Mi41IDQ0LjMxMy0uMjE5LS4wOTRhMTIuOTEgMTIuOTEgMCAwIDEtMTcuNjg3LTIuMzc1Yy0xLjc3MS0yLjIyMS0yLjcwMS00LjgzMi0yLjgxMi03LjQ2OWwtLjA2Mi0uMDMxek0yMzIuMTI2IDI4My42Mmw1Ny40MzcgNTEuMzc1LS4wNjIuMzEzYTEyLjg4IDEyLjg4IDAgMCAxIDEuNjI1IDE3Ljc1IDEyLjg5IDEyLjg5IDAgMCAxLTYuNjg3IDQuNDA2bC0uMDYyLjI1LTczLjYyNSAyMS4yNWMtMy43NDctMzQuMjY1IDQuMzI5LTY3LjU3NCAyMS4zNzUtOTUuMzQ0em0yNTguMTU2LjAzMWM4LjUzNCAxMy44MzMgMTQuOTk3IDI5LjI4MiAxOC44NDQgNDYuMDMxIDMuODAxIDE2LjU0OCA0Ljc1NSAzMy4wNjcgMy4xODggNDkuMDMxbC03NC0yMS4zMTItLjA2Mi0uMzEyYy02LjYyNy0xLjgxMS0xMC42OTktOC41NTItOS4xNTYtMTUuMzEyLjYzMi0yLjc3IDIuMTAyLTUuMTEzIDQuMDk0LTYuODQ0bC0uMDMxLS4xNTYgNTcuMTI1LTUxLjEyNXptLTE0MC42NTYgNTUuMzEzaDIzLjUzMWwxNC42MjUgMTguMjgxLTUuMjUgMjIuODEzLTIxLjEyNSAxMC4xNTYtMjEuMTg3LTEwLjE4Ny01LjI1LTIyLjgxMnptNzUuNDM4IDYyLjU2M2ExMi44MyAxMi44MyAwIDAgMSAyLjk2OS4yMTlsLjEyNS0uMTU2IDc2LjE1NiAxMi44NzVjLTExLjE0NiAzMS4zMTMtMzIuNDczIDU4LjQ0LTYwLjk2OSA3Ni41OTRsLTI5LjU2Mi03MS40MDYuMDk0LS4xMjVjLTIuNzE2LTYuMzEuMDAyLTEzLjcxIDYuMjUtMTYuNzE5IDEuNi0uNzcgMy4yNzEtMS4xOTcgNC45MzgtMS4yODF6bS0xMjcuOTA2LjMxM2ExMi45IDEyLjkgMCAwIDEgMTIuMzc1IDEwLjAzMSAxMi43NyAxMi43NyAwIDAgMS0uNzE5IDcuOTM4bC4yMTkuMjgxLTI5LjI1IDcwLjY4OGMtMjcuMzQ3LTE3LjU0OS00OS4xMjktNDMuODI0LTYwLjc4MS03Ni4wNjJsNzUuNS0xMi44MTIuMTI1LjE1NmMuODQ1LS4xNTUgMS43MDEtLjIzIDIuNTMxLS4yMTl6bTYzLjc4MSAzMC45NjljMi4wMjQtLjA3NCA0LjA3OS4zNDEgNi4wMzEgMS4yODEgMi41NiAxLjIzMyA0LjUzNyAzLjE3MyA1Ljc4MSA1LjVoLjI4MWwzNy4yMTkgNjcuMjVjLTQuODMgMS42MTktOS43OTYgMy4wMDMtMTQuODc1IDQuMTU2LTI4LjQ2NSA2LjQ2My01Ni44MzkgNC41MDUtODIuNTMxLTQuMjVsMzcuMTI1LTY3LjEyNWguMDYzYTEyLjkxIDEyLjkxIDAgMCAxIDEwLjkwNi02LjgxMnoiIHN0cm9rZT0ibm9uZSIgc3Ryb2tlLXdpZHRoPSIuMjUiLz4mI3hhOzwvc3ZnPg==;fontColor=default;" vertex="1" parent="7yBYphcbDWLp9bj1Q6KP-210">
          <mxGeometry x="305" width="40" height="38" as="geometry" />
        </mxCell>
        <mxCell id="7yBYphcbDWLp9bj1Q6KP-207" value="" style="rounded=0;whiteSpace=wrap;html=1;fillColor=none;strokeColor=#d79b00;" vertex="1" parent="7yBYphcbDWLp9bj1Q6KP-210">
          <mxGeometry x="147" y="70" width="310" height="360" as="geometry" />
        </mxCell>
        <mxCell id="7yBYphcbDWLp9bj1Q6KP-158" value="" style="points=[];aspect=fixed;html=1;align=center;shadow=0;dashed=0;fillColor=#FF6A00;strokeColor=none;shape=mxgraph.alibaba_cloud.kafka;" vertex="1" parent="7yBYphcbDWLp9bj1Q6KP-210">
          <mxGeometry x="420" y="80" width="27" height="20" as="geometry" />
        </mxCell>
        <mxCell id="7yBYphcbDWLp9bj1Q6KP-211" value="&lt;font style=&quot;font-size: 9px;&quot;&gt;Backend&lt;/font&gt;" style="shape=image;html=1;verticalAlign=top;verticalLabelPosition=bottom;labelBackgroundColor=#ffffff;imageAspect=0;aspect=fixed;image=https://cdn0.iconfinder.com/data/icons/long-shadow-web-icons/512/python-128.png" vertex="1" parent="7yBYphcbDWLp9bj1Q6KP-210">
          <mxGeometry x="630" y="40" width="30" height="30" as="geometry" />
        </mxCell>
        <mxCell id="7yBYphcbDWLp9bj1Q6KP-213" value="&lt;font style=&quot;font-size: 9px;&quot;&gt;Frontend&lt;/font&gt;" style="shape=image;html=1;verticalAlign=top;verticalLabelPosition=bottom;labelBackgroundColor=#ffffff;imageAspect=0;aspect=fixed;image=https://cdn1.iconfinder.com/data/icons/unicons-line-vol-5/24/react-128.png" vertex="1" parent="7yBYphcbDWLp9bj1Q6KP-210">
          <mxGeometry x="-20" y="38" width="30" height="30" as="geometry" />
        </mxCell>
        <mxCell id="7yBYphcbDWLp9bj1Q6KP-231" value="" style="group" vertex="1" connectable="0" parent="1">
          <mxGeometry x="10" y="230" width="339.71" height="89" as="geometry" />
        </mxCell>
        <mxCell id="7yBYphcbDWLp9bj1Q6KP-160" value="&lt;font style=&quot;font-size: 9px;&quot;&gt;Kafka&lt;/font&gt;" style="text;html=1;align=center;verticalAlign=middle;whiteSpace=wrap;rounded=0;" vertex="1" parent="7yBYphcbDWLp9bj1Q6KP-231">
          <mxGeometry x="157.55" y="59" width="60" height="30" as="geometry" />
        </mxCell>
        <mxCell id="7yBYphcbDWLp9bj1Q6KP-230" value="" style="group" vertex="1" connectable="0" parent="7yBYphcbDWLp9bj1Q6KP-231">
          <mxGeometry width="339.71" height="61" as="geometry" />
        </mxCell>
        <mxCell id="7yBYphcbDWLp9bj1Q6KP-208" value="" style="group" vertex="1" connectable="0" parent="7yBYphcbDWLp9bj1Q6KP-230">
          <mxGeometry width="205.1" height="61" as="geometry" />
        </mxCell>
        <mxCell id="7yBYphcbDWLp9bj1Q6KP-22" value="&lt;font style=&quot;font-size: 9px;&quot;&gt;Pod&lt;/font&gt;" style="aspect=fixed;sketch=0;html=1;dashed=0;whitespace=wrap;verticalLabelPosition=bottom;verticalAlign=top;fillColor=#2875E2;strokeColor=#ffffff;points=[[0.005,0.63,0],[0.1,0.2,0],[0.9,0.2,0],[0.5,0,0],[0.995,0.63,0],[0.72,0.99,0],[0.5,1,0],[0.28,0.99,0]];shape=mxgraph.kubernetes.icon2;prIcon=pod" vertex="1" parent="7yBYphcbDWLp9bj1Q6KP-208">
          <mxGeometry x="10" y="30" width="31.25" height="30" as="geometry" />
        </mxCell>
        <mxCell id="7yBYphcbDWLp9bj1Q6KP-23" value="&lt;font style=&quot;font-size: 9px;&quot;&gt;Job&lt;/font&gt;&lt;div&gt;&lt;br&gt;&lt;/div&gt;" style="aspect=fixed;sketch=0;html=1;dashed=0;whitespace=wrap;verticalLabelPosition=bottom;verticalAlign=top;fillColor=#2875E2;strokeColor=#ffffff;points=[[0.005,0.63,0],[0.1,0.2,0],[0.9,0.2,0],[0.5,0,0],[0.995,0.63,0],[0.72,0.99,0],[0.5,1,0],[0.28,0.99,0]];shape=mxgraph.kubernetes.icon2;prIcon=job" vertex="1" parent="7yBYphcbDWLp9bj1Q6KP-208">
          <mxGeometry x="130" y="31" width="31.25" height="30" as="geometry" />
        </mxCell>
        <mxCell id="7yBYphcbDWLp9bj1Q6KP-24" value="&lt;font style=&quot;font-size: 9px;&quot;&gt;Svc&lt;/font&gt;" style="aspect=fixed;sketch=0;html=1;dashed=0;whitespace=wrap;verticalLabelPosition=bottom;verticalAlign=top;fillColor=#2875E2;strokeColor=#ffffff;points=[[0.005,0.63,0],[0.1,0.2,0],[0.9,0.2,0],[0.5,0,0],[0.995,0.63,0],[0.72,0.99,0],[0.5,1,0],[0.28,0.99,0]];shape=mxgraph.kubernetes.icon2;prIcon=svc" vertex="1" parent="7yBYphcbDWLp9bj1Q6KP-208">
          <mxGeometry x="50.000000000000036" y="30" width="31.26" height="30" as="geometry" />
        </mxCell>
        <mxCell id="7yBYphcbDWLp9bj1Q6KP-30" value="&lt;font style=&quot;font-size: 9px;&quot;&gt;Deploy&lt;/font&gt;" style="aspect=fixed;sketch=0;html=1;dashed=0;whitespace=wrap;verticalLabelPosition=bottom;verticalAlign=top;fillColor=#2875E2;strokeColor=#ffffff;points=[[0.005,0.63,0],[0.1,0.2,0],[0.9,0.2,0],[0.5,0,0],[0.995,0.63,0],[0.72,0.99,0],[0.5,1,0],[0.28,0.99,0]];shape=mxgraph.kubernetes.icon2;prIcon=deploy" vertex="1" parent="7yBYphcbDWLp9bj1Q6KP-208">
          <mxGeometry x="90.00000000000003" y="31" width="30.21" height="29" as="geometry" />
        </mxCell>
        <mxCell id="7yBYphcbDWLp9bj1Q6KP-31" value="&lt;font style=&quot;font-size: 11px;&quot;&gt;Leyenda&lt;/font&gt;" style="text;html=1;align=center;verticalAlign=middle;resizable=0;points=[];autosize=1;strokeColor=none;fillColor=none;" vertex="1" parent="7yBYphcbDWLp9bj1Q6KP-208">
          <mxGeometry width="70" height="30" as="geometry" />
        </mxCell>
        <mxCell id="7yBYphcbDWLp9bj1Q6KP-159" value="" style="points=[];aspect=fixed;html=1;align=center;shadow=0;dashed=0;fillColor=#FF6A00;strokeColor=none;shape=mxgraph.alibaba_cloud.kafka;" vertex="1" parent="7yBYphcbDWLp9bj1Q6KP-208">
          <mxGeometry x="170" y="33" width="35.1" height="26" as="geometry" />
        </mxCell>
        <mxCell id="7yBYphcbDWLp9bj1Q6KP-224" value="&lt;font style=&quot;font-size: 9px;&quot;&gt;Python&lt;/font&gt;" style="shape=image;html=1;verticalAlign=top;verticalLabelPosition=bottom;labelBackgroundColor=#ffffff;imageAspect=0;aspect=fixed;image=https://cdn0.iconfinder.com/data/icons/long-shadow-web-icons/512/python-128.png" vertex="1" parent="7yBYphcbDWLp9bj1Q6KP-230">
          <mxGeometry x="217.55" y="28.55000000000001" width="32.45" height="32.45" as="geometry" />
        </mxCell>
        <mxCell id="7yBYphcbDWLp9bj1Q6KP-226" value="&lt;font style=&quot;font-size: 9px;&quot;&gt;React&lt;/font&gt;" style="shape=image;html=1;verticalAlign=top;verticalLabelPosition=bottom;labelBackgroundColor=#ffffff;imageAspect=0;aspect=fixed;image=https://cdn1.iconfinder.com/data/icons/unicons-line-vol-5/24/react-128.png" vertex="1" parent="7yBYphcbDWLp9bj1Q6KP-230">
          <mxGeometry x="263" y="31" width="30" height="30" as="geometry" />
        </mxCell>
        <mxCell id="7yBYphcbDWLp9bj1Q6KP-229" value="&lt;font style=&quot;font-size: 9px;&quot;&gt;Postgres SQL&lt;/font&gt;" style="image;aspect=fixed;html=1;points=[];align=center;fontSize=12;image=img/lib/azure2/databases/Azure_Database_PostgreSQL_Server.svg;" vertex="1" parent="7yBYphcbDWLp9bj1Q6KP-230">
          <mxGeometry x="320" y="34.73000000000002" width="19.71" height="26.27" as="geometry" />
        </mxCell>
      </root>
    </mxGraphModel>
  </diagram>
</mxfile>
